<svg xmlns="http://www.w3.org/2000/svg" width="1180" height="560" viewBox="0 0 1180 560">
  <defs>
    <linearGradient id="bg" x1="0" x2="1" y1="0" y2="1">
      <stop offset="0%" stop-color="#fffaf3"/>
      <stop offset="100%" stop-color="#f5f1e8"/>
    </linearGradient>
    <marker id="arrow" markerWidth="10" markerHeight="10" refX="9" refY="3" orient="auto">
      <path d="M0,0 L10,3 L0,6 z" fill="#704931"/>
    </marker>
  </defs>
  <rect width="1180" height="560" fill="url(#bg)"/>
  <text x="40" y="28" font-family="Arial, PingFang SC, Microsoft YaHei, sans-serif" font-size="28" font-weight="700" fill="#1f1f1f">System Architecture</text>
  <rect x="40" y="50" rx="18" ry="18" width="220" height="72" fill="#f4d8ca" stroke="#b55d31" stroke-width="2"/><text x="150.0" y="92.0" text-anchor="middle" font-family="Arial, PingFang SC, Microsoft YaHei, sans-serif" font-size="24" fill="#1f1f1f">用户 / 产品入口</text>
<rect x="310" y="50" rx="18" ry="18" width="240" height="72" fill="#f8ecdd" stroke="#b55d31" stroke-width="2"/><text x="430.0" y="92.0" text-anchor="middle" font-family="Arial, PingFang SC, Microsoft YaHei, sans-serif" font-size="24" fill="#1f1f1f">在线知识库助手</text>
<rect x="610" y="40" rx="18" ry="18" width="220" height="180" fill="#fff8ef" stroke="#b55d31" stroke-width="2"/><text x="720.0" y="136.0" text-anchor="middle" font-family="Arial, PingFang SC, Microsoft YaHei, sans-serif" font-size="24" fill="#1f1f1f">工具层</text>
<rect x="880" y="50" rx="18" ry="18" width="250" height="72" fill="#f8ecdd" stroke="#b55d31" stroke-width="2"/><text x="1005.0" y="92.0" text-anchor="middle" font-family="Arial, PingFang SC, Microsoft YaHei, sans-serif" font-size="24" fill="#1f1f1f">文档检索 / 结构化数据</text>
<rect x="40" y="250" rx="18" ry="18" width="220" height="72" fill="#f4d8ca" stroke="#b55d31" stroke-width="2"/><text x="150.0" y="292.0" text-anchor="middle" font-family="Arial, PingFang SC, Microsoft YaHei, sans-serif" font-size="24" fill="#1f1f1f">离线任务集</text>
<rect x="310" y="250" rx="18" ry="18" width="240" height="72" fill="#f8ecdd" stroke="#b55d31" stroke-width="2"/><text x="430.0" y="292.0" text-anchor="middle" font-family="Arial, PingFang SC, Microsoft YaHei, sans-serif" font-size="24" fill="#1f1f1f">实验编排与 Runner</text>
<rect x="610" y="250" rx="18" ry="18" width="220" height="72" fill="#fff8ef" stroke="#b55d31" stroke-width="2"/><text x="720.0" y="292.0" text-anchor="middle" font-family="Arial, PingFang SC, Microsoft YaHei, sans-serif" font-size="24" fill="#1f1f1f">评测器 / 失败分类</text>
<rect x="880" y="250" rx="18" ry="18" width="250" height="72" fill="#f8ecdd" stroke="#b55d31" stroke-width="2"/><text x="1005.0" y="292.0" text-anchor="middle" font-family="Arial, PingFang SC, Microsoft YaHei, sans-serif" font-size="24" fill="#1f1f1f">排行榜 / 实验详情</text>
<rect x="400" y="430" rx="18" ry="18" width="360" height="78" fill="#f4d8ca" stroke="#b55d31" stroke-width="2"/><text x="580.0" y="475.0" text-anchor="middle" font-family="Arial, PingFang SC, Microsoft YaHei, sans-serif" font-size="24" fill="#1f1f1f">SQLite 持久化层</text>
<line x1="260" y1="86" x2="310" y2="86" stroke="#704931" stroke-width="3" marker-end="url(#arrow)"/><text x="285.0" y="76.0" text-anchor="middle" font-family="Arial, PingFang SC, Microsoft YaHei, sans-serif" font-size="18" fill="#6b665d">真实提问</text>
<line x1="550" y1="86" x2="610" y2="86" stroke="#704931" stroke-width="3" marker-end="url(#arrow)"/><text x="580.0" y="76.0" text-anchor="middle" font-family="Arial, PingFang SC, Microsoft YaHei, sans-serif" font-size="18" fill="#6b665d">tool calling</text>
<line x1="830" y1="86" x2="880" y2="86" stroke="#704931" stroke-width="3" marker-end="url(#arrow)"/><text x="855.0" y="76.0" text-anchor="middle" font-family="Arial, PingFang SC, Microsoft YaHei, sans-serif" font-size="18" fill="#6b665d">检索 / SQL / API</text>
<line x1="260" y1="286" x2="310" y2="286" stroke="#704931" stroke-width="3" marker-end="url(#arrow)"/><text x="285.0" y="276.0" text-anchor="middle" font-family="Arial, PingFang SC, Microsoft YaHei, sans-serif" font-size="18" fill="#6b665d">benchmark 任务</text>
<line x1="550" y1="286" x2="610" y2="286" stroke="#704931" stroke-width="3" marker-end="url(#arrow)"/><text x="580.0" y="276.0" text-anchor="middle" font-family="Arial, PingFang SC, Microsoft YaHei, sans-serif" font-size="18" fill="#6b665d">run 结果</text>
<line x1="830" y1="286" x2="880" y2="286" stroke="#704931" stroke-width="3" marker-end="url(#arrow)"/><text x="855.0" y="276.0" text-anchor="middle" font-family="Arial, PingFang SC, Microsoft YaHei, sans-serif" font-size="18" fill="#6b665d">聚合分析</text>
<line x1="430" y1="122" x2="530" y2="430" stroke="#704931" stroke-width="3" marker-end="url(#arrow)"/>
<line x1="740" y1="220" x2="650" y2="430" stroke="#704931" stroke-width="3" marker-end="url(#arrow)"/>
<line x1="430" y1="322" x2="520" y2="430" stroke="#704931" stroke-width="3" marker-end="url(#arrow)"/>
<line x1="1010" y1="322" x2="690" y2="430" stroke="#704931" stroke-width="3" marker-end="url(#arrow)"/>
</svg>